<svg width="32" height="32" viewBox="0 0 32 32" fill="none" xmlns="http://www.w3.org/2000/svg">
  <defs>
    <linearGradient id="favicon-gradient" x1="0%" y1="0%" x2="100%" y2="100%">
      <stop offset="0%" style="stop-color:#8B5CF6;stop-opacity:1" />
      <stop offset="100%" style="stop-color:#06B6D4;stop-opacity:1" />
    </linearGradient>
  </defs>
  
  <!-- Dark background for contrast -->
  <rect width="32" height="32" fill="#0a0e1a" rx="6"/>
  
  <!-- Brain outline -->
  <path d="M16 6C13 6 10.5 8 10.5 10.5C10.5 11 10.6 11.4 10.7 11.8C10.2 12.2 9.8 12.8 9.8 13.5C9.8 14.6 10.6 15.5 11.6 15.8C11.6 16.3 11.8 16.8 12.1 17.2C12.5 17.8 13.1 18.2 13.8 18.4C14 20 15 21 16.5 21C18 21 19 20 19.2 18.4C19.9 18.2 20.5 17.8 20.9 17.2C21.2 16.8 21.4 16.3 21.4 15.8C22.4 15.5 23.2 14.6 23.2 13.5C23.2 12.8 22.8 12.2 22.3 11.8C22.4 11.4 22.5 11 22.5 10.5C22.5 8 20 6 17 6C16.6 6 16.3 6.05 16 6.1Z" 
        stroke="url(#favicon-gradient)" 
        stroke-width="1.2" 
        fill="none"/>
  
  <!-- Central nodes -->
  <circle cx="13" cy="12" r="1" fill="url(#favicon-gradient)"/>
  <circle cx="16.5" cy="11" r="1" fill="url(#favicon-gradient)"/>
  <circle cx="20" cy="12" r="1" fill="url(#favicon-gradient)"/>
  <circle cx="14.5" cy="15" r="1" fill="url(#favicon-gradient)"/>
  <circle cx="18.5" cy="15" r="1" fill="url(#favicon-gradient)"/>
  <circle cx="16.5" cy="18" r="1" fill="url(#favicon-gradient)"/>
  
  <!-- Connections -->
  <path d="M13 12L14.5 15M16.5 11L14.5 15M20 12L18.5 15M14.5 15L16.5 18M18.5 15L16.5 18" 
        stroke="url(#favicon-gradient)" 
        stroke-width="0.8" 
        opacity="0.6"/>
  
  <!-- Wave at bottom -->
  <path d="M8 25Q10 23.5 12.5 25T17.5 25T22 25T26 25" 
        stroke="url(#favicon-gradient)" 
        stroke-width="1.2" 
        fill="none"
        opacity="0.5"/>
</svg>
